<svg width="24" height="24" viewBox="0 0 24 24" fill="none" xmlns="http://www.w3.org/2000/svg">
<path fill-rule="evenodd" clip-rule="evenodd" d="M19.5269 2.80139C19.8178 3.02075 19.9423 3.39738 19.8395 3.7469L14.8395 20.7469C14.7409 21.082 14.4524 21.3264 14.1057 21.3686C13.7589 21.4108 13.4202 21.2426 13.2442 20.9409L9.93478 15.2676L3.80328 13.8526C3.45937 13.7732 3.19681 13.495 3.13748 13.1471C3.07816 12.7991 3.23368 12.4496 3.53186 12.2608L18.5319 2.76078C18.8396 2.56586 19.236 2.58203 19.5269 2.80139ZM6.23787 12.6184L10.6968 13.6474C10.9319 13.7017 11.1342 13.8507 11.2558 14.0591L13.7332 18.3061L17.5048 5.48269L6.23787 12.6184Z" fill="black"/>
</svg>
