<svg width="24" height="24" viewBox="0 0 24 24" fill="none" xmlns="http://www.w3.org/2000/svg">
<path d="M9.22223 9.6001C9.22223 9.04781 8.77451 8.6001 8.22223 8.6001C7.66994 8.6001 7.22223 9.04781 7.22223 9.6001C7.22223 12.2455 9.35584 14.4 12 14.4C14.6442 14.4 16.7778 12.2455 16.7778 9.6001C16.7778 9.04781 16.3301 8.6001 15.7778 8.6001C15.2255 8.6001 14.7778 9.04781 14.7778 9.6001C14.7778 11.152 13.5286 12.4 12 12.4C10.4714 12.4 9.22223 11.152 9.22223 9.6001Z" fill="black"/>
<path fill-rule="evenodd" clip-rule="evenodd" d="M5.03173 1.90225C5.22047 1.64912 5.51766 1.5 5.83341 1.5H18.1667C18.4825 1.5 18.7797 1.64912 18.9684 1.90225L21.7908 5.68763C21.8826 5.80597 21.9484 5.94547 21.9796 6.09756C21.9941 6.1679 22.0008 6.23924 22.0001 6.3103V20.4998C22.0001 21.6043 21.1047 22.4998 20.0001 22.4998H4.00006C2.89547 22.4998 2.00006 21.6043 2.00006 20.4998V6.31029C1.99928 6.23923 2.00604 6.16789 2.02052 6.09756C2.05176 5.94546 2.11754 5.80595 2.2093 5.6876L5.03173 1.90225ZM17.665 3.5L19.0069 5.2998H4.9932L6.33517 3.5H17.665ZM4.00006 7.2998V20.4998H20.0001V7.2998H4.00006Z" fill="black"/>
</svg>
