<svg width="24" height="24" viewBox="0 0 24 24" fill="none" xmlns="http://www.w3.org/2000/svg">
<path fill-rule="evenodd" clip-rule="evenodd" d="M9.01009 7.62687L9.0101 7.62562L9.0101 7.62439M9.15734 6.75186C9.11243 6.90615 9.08061 7.05211 9.0583 7.1816C9.03333 7.32651 9.0212 7.44534 9.01536 7.52447C9.01245 7.56389 9.01113 7.59301 9.01054 7.61009L9.0101 7.62562L9.01009 7.62687M9.15734 6.75186H14.8427C14.7856 6.55593 14.7075 6.34656 14.601 6.14044C14.4124 5.77565 14.1429 5.43569 13.7538 5.18474C13.3696 4.93702 12.8165 4.74194 12 4.74194C11.1835 4.74194 10.6304 4.93702 10.2462 5.18474C9.85708 5.43569 9.5876 5.77565 9.39904 6.14044C9.29249 6.34656 9.21436 6.55593 9.15734 6.75186ZM16.6688 6.75186C16.591 6.35946 16.4491 5.86052 16.1869 5.35336C15.8906 4.78018 15.4328 4.18217 14.7311 3.72965C14.0243 3.2739 13.1229 3 12 3C10.8771 3 9.97567 3.2739 9.26891 3.72965C8.56716 4.18217 8.10937 4.78018 7.81308 5.35336C7.55093 5.86052 7.40899 6.35946 7.33122 6.75186H4.88889C4.39797 6.75186 4 7.14181 4 7.62283V20.129C4 20.6101 4.39797 21 4.88889 21H19.1111C19.602 21 20 20.6101 20 20.129V7.62283C20 7.14181 19.602 6.75186 19.1111 6.75186H16.6688ZM5.77778 8.4938V19.2581H18.2222V8.4938H5.77778ZM14.9899 7.62711L14.9899 7.62562ZM14.9899 7.62562L14.9899 7.62439Z" fill="#A8A8A8"/>
</svg>
