<svg width="24" height="24" viewBox="0 0 24 24" fill="none" xmlns="http://www.w3.org/2000/svg">
<path fill-rule="evenodd" clip-rule="evenodd" d="M0 7C0 6.51675 0.391751 6.125 0.875 6.125H14.875C15.3582 6.125 15.75 6.51675 15.75 7C15.75 7.48325 15.3582 7.875 14.875 7.875H0.875C0.391751 7.875 0 7.48325 0 7Z" fill="black"/>
<path fill-rule="evenodd" clip-rule="evenodd" d="M0 12C0 11.5168 0.391751 11.125 0.875 11.125H14.875C15.3582 11.125 15.75 11.5168 15.75 12C15.75 12.4832 15.3582 12.875 14.875 12.875H0.875C0.391751 12.875 0 12.4832 0 12Z" fill="black"/>
<path fill-rule="evenodd" clip-rule="evenodd" d="M0 17C0 16.5168 0.391751 16.125 0.875 16.125H14.875C15.3582 16.125 15.75 16.5168 15.75 17C15.75 17.4832 15.3582 17.875 14.875 17.875H0.875C0.391751 17.875 0 17.4832 0 17Z" fill="black"/>
</svg>
