<svg width="24" height="24" viewBox="0 0 24 24" fill="none" xmlns="http://www.w3.org/2000/svg">
<path d="M8 14.75C8 15.4403 7.44035 16 6.75 16C6.05965 16 5.5 15.4403 5.5 14.75C5.5 14.0597 6.05965 13.5 6.75 13.5C7.44035 13.5 8 14.0597 8 14.75Z" fill="black"/>
<path d="M18.5 14.75C18.5 15.4403 17.9403 16 17.25 16C16.5597 16 16 15.4403 16 14.75C16 14.0597 16.5597 13.5 17.25 13.5C17.9403 13.5 18.5 14.0597 18.5 14.75Z" fill="black"/>
<path fill-rule="evenodd" clip-rule="evenodd" d="M8.80215 5.5C7.86475 5.5 7.05314 6.15108 6.84981 7.06612L6.02381 10.7831C5.95801 11.0792 6.03016 11.3891 6.21996 11.6257C6.40975 11.8623 6.69668 12 7 12H17C17.3033 12 17.5902 11.8623 17.78 11.6257C17.9698 11.3891 18.042 11.0792 17.9762 10.7831L17.1502 7.06615C16.9469 6.15112 16.1353 5.5 15.1979 5.5H8.80215ZM8.24662 10L8.80218 7.5H15.1978L15.7534 10H8.24662Z" fill="black"/>
<path fill-rule="evenodd" clip-rule="evenodd" d="M4.18136 4.31895C4.49793 2.9609 5.7085 2 7.103 2H16.9471C18.352 2 19.5688 2.97494 19.875 4.34612L20.8742 8.82031C22.1798 9.5126 23 10.871 23 12.354V17C23 18.3807 21.8807 19.5 20.5 19.5H20.4601C20.2219 20.9192 18.9869 22 17.5008 22C16.0147 22 14.7797 20.9192 14.5415 19.5H9.45854C9.22057 20.9189 7.98663 22 6.50015 22C5.01369 22 3.7797 20.9189 3.54172 19.5H3.5C2.1193 19.5 1 18.3807 1 17V12.3548C1 10.8692 1.82309 9.50852 3.13274 8.81742L4.18136 4.31895ZM7.103 4C6.6382 4 6.23467 4.32027 6.12914 4.77299L4.97416 9.72777C4.90659 10.0176 4.71344 10.2623 4.4472 10.3953L4.10624 10.5657C3.42836 10.9043 3 11.597 3 12.3548V17C3 17.2762 3.22385 17.5 3.5 17.5H4.50027C5.05255 17.5 5.50027 17.9477 5.50027 18.5V19.0002C5.50027 19.5523 5.94791 20 6.50015 20C7.05237 20 7.5 19.5524 7.5 19.0002V18.5C7.5 17.9477 7.94772 17.5 8.5 17.5H15.5C16.0523 17.5 16.5 17.9477 16.5 18.5V19C16.5 19.5518 16.948 20 17.5008 20C18.0536 20 18.5016 19.5518 18.5016 19V18.5C18.5016 17.9477 18.9493 17.5 19.5016 17.5H20.5C20.7762 17.5 21 17.2762 21 17V12.354C21 11.5965 20.572 10.904 19.8945 10.5652L19.5544 10.3952C19.2854 10.2607 19.0912 10.0123 19.0256 9.71871L17.9231 4.78204C17.8211 4.32506 17.4155 4 16.9471 4H7.103Z" fill="black"/>
</svg>
