<svg width="24" height="24" viewBox="0 0 24 24" fill="none" xmlns="http://www.w3.org/2000/svg">
<path d="M4 23C3.48716 23 3.06449 22.614 3.00673 22.1166L3 22L3.00034 11.6612C2.79603 11.589 2.59573 11.5016 2.40111 11.3989L2.18478 11.277L1.48551 10.8575C1.1843 10.6768 1 10.3513 1 10V6C1 5.44772 1.44772 5 2 5L3 4.999V2C3 1.48716 3.38604 1.06449 3.88338 1.00673L4 1H20C20.5128 1 20.9355 1.38604 20.9933 1.88338L21 2V4.999L22 5C22.5128 5 22.9355 5.38604 22.9933 5.88338L23 6V10C23 10.3513 22.8157 10.6768 22.5145 10.8575L21.8153 11.277C21.5542 11.4337 21.2812 11.5616 21.0007 11.6609L21 22C21 22.5128 20.614 22.9355 20.1166 22.9933L20 23H4ZM17 11.166L16.8153 11.277C15.4614 12.0894 13.787 12.13 12.4011 11.3989L12.1848 11.277L12 11.166L11.8153 11.277C10.4614 12.0894 8.78698 12.13 7.40109 11.3989L7.18475 11.277L7 11.166L6.81525 11.277C6.2512 11.6155 5.63151 11.82 5.00021 11.8905L5 21H8.5V16C8.5 15.4872 8.88604 15.0645 9.38338 15.0067L9.5 15H14.5C15.0523 15 15.5 15.4477 15.5 16V21H19L19.0008 11.8906C18.3692 11.8202 17.7491 11.6157 17.1848 11.277L17 11.166ZM13.5 17H10.5V21H13.5V17ZM19.983 6.999L3 7V9.434L3.21377 9.56206C3.95269 10.0054 4.86354 10.035 5.6254 9.65073L5.78625 9.56206L6.4855 9.14251C6.80219 8.9525 7.19781 8.9525 7.5145 9.14251L8.21375 9.56206C9.00547 10.0371 9.99453 10.0371 10.7863 9.56206L11.4855 9.14251C11.8022 8.9525 12.1978 8.9525 12.5145 9.14251L13.2138 9.56206C14.0055 10.0371 14.9945 10.0371 15.7863 9.56206L16.4855 9.14251C16.8022 8.9525 17.1978 8.9525 17.5145 9.14251L18.2138 9.56206C19.0055 10.0371 19.9945 10.0371 20.7863 9.56206L21 9.433V7L20.0173 6.99985C20.0116 6.99995 20.0058 7 20 7L19.983 6.999ZM19 3H5V4.999H19V3Z" fill="black"/>
</svg>
