<svg width="24" height="24" viewBox="0 0 24 24" fill="none" xmlns="http://www.w3.org/2000/svg">
<path d="M7.69598 4.24937C8.3666 4.24937 8.98449 4.61309 9.31008 5.19947L10.4392 7.23339C10.7349 7.76603 10.7488 8.41025 10.4763 8.95508L9.54404 10.8186L9.55836 10.8637L9.64585 11.1109C9.82156 11.5748 10.0661 12.0394 10.3876 12.4696C10.5292 12.6592 10.6833 12.8382 10.8501 13.005C11.0149 13.1698 11.1914 13.322 11.3781 13.4619C11.8085 13.7846 12.2732 14.0293 12.737 14.2045C12.8276 14.2387 12.9105 14.2676 12.9842 14.2916L13.029 14.3056L14.8942 13.3736C15.385 13.1282 15.9563 13.1151 16.454 13.3309L16.617 13.4113L18.6566 14.5452C19.2425 14.8709 19.6058 15.4885 19.6058 16.1588V18.5004C19.6058 20.3238 17.8797 21.6312 16.1501 21.0475C12.693 19.8811 9.63043 18.3125 7.58659 16.2686C5.5427 14.2247 3.9741 11.1622 2.80762 7.70509C2.224 5.97542 3.53137 4.24937 5.35473 4.24937H7.69598ZM7.69601 6.09553H5.35473C4.77087 6.09553 4.38489 6.60512 4.55688 7.11486C5.6401 10.3252 7.09544 13.1666 8.89202 14.9631C10.6886 16.7597 13.53 18.2151 16.7403 19.2983C17.25 19.4703 17.7596 19.0843 17.7596 18.5004V16.1588L15.7199 15.0248L13.5447 16.1124C13.3634 16.2031 13.1572 16.2315 12.9581 16.1933C12.2552 16.0585 11.2649 15.6844 10.2707 14.9391C10.0153 14.7476 9.77264 14.5384 9.54471 14.3104C9.31402 14.0797 9.10233 13.8338 8.90878 13.5748C8.16736 12.5828 7.79316 11.5949 7.65683 10.894C7.61796 10.6942 7.64625 10.4871 7.73731 10.305L8.82509 8.1294L7.69601 6.09553ZM16.0994 3.02029C17.3039 3.32231 18.4085 3.94301 19.3052 4.83961C20.2018 5.73625 20.8225 6.84096 21.1245 8.04539C21.3469 8.93235 21.3917 9.85615 21.2569 10.7604C21.1818 11.2646 20.7121 11.6125 20.2078 11.5373C19.7036 11.4621 19.3558 10.9924 19.4309 10.4882C19.5299 9.82409 19.497 9.1454 19.3338 8.4944C19.1125 7.61189 18.6584 6.80374 17.9997 6.14504C17.3411 5.48638 16.5329 5.0323 15.6504 4.811C14.9994 4.64777 14.3207 4.61485 13.6565 4.71385C13.1523 4.78901 12.6826 4.44118 12.6075 3.93695C12.5323 3.43272 12.8801 2.96303 13.3844 2.88787C14.2886 2.75308 15.2125 2.79788 16.0994 3.02029ZM16.713 7.23232C17.5507 8.07002 17.9252 9.24065 17.7539 10.3897C17.6787 10.894 17.209 11.2418 16.7048 11.1666C16.2366 11.0968 15.9032 10.6869 15.9182 10.2249L15.9279 10.1176C16.0138 9.54107 15.8271 8.95729 15.4076 8.53777C15.0299 8.16015 14.5193 7.97109 14.0007 7.99969L13.8277 8.01733C13.3235 8.0925 12.8538 7.74467 12.7786 7.24044C12.7035 6.73621 13.0513 6.26652 13.5555 6.19135C14.7046 6.02006 15.8752 6.39461 16.713 7.23232Z" fill="black"/>
</svg>
