<svg width="24" height="24" viewBox="0 0 24 24" fill="none" xmlns="http://www.w3.org/2000/svg">
<path fill-rule="evenodd" clip-rule="evenodd" d="M20.6187 4.61872C20.9604 4.27701 20.9604 3.72299 20.6187 3.38128C20.277 3.03957 19.723 3.03957 19.3813 3.38128L11.8873 10.8753L5.12878 3.89151C4.79272 3.54424 4.23877 3.53516 3.89151 3.87122C3.54424 4.20729 3.53516 4.76123 3.87122 5.10849L10.6497 12.1129L3.38128 19.3813C3.03957 19.723 3.03957 20.277 3.38128 20.6187C3.72299 20.9604 4.27701 20.9604 4.61872 20.6187L11.8668 13.3706L18.8712 20.6085C19.2073 20.9558 19.7612 20.9648 20.1085 20.6288C20.4558 20.2927 20.4648 19.7388 20.1288 19.3915L13.1044 12.133L20.6187 4.61872Z" fill="#A8A8A8"/>
</svg>
