<svg width="24" height="24" viewBox="0 0 24 24" fill="none" xmlns="http://www.w3.org/2000/svg">
<path fill-rule="evenodd" clip-rule="evenodd" d="M4.31744 10.6245C3.85278 7.06912 5.89402 4.25 8.8198 4.25C10.3078 4.25 11.5351 4.80523 12.4999 5.85898C13.4647 4.80523 14.692 4.25 16.1799 4.25C19.1057 4.25 21.147 7.06904 20.6823 10.6245C20.5645 11.5257 20.0012 12.5366 19.3309 13.4787C18.6413 14.4478 17.761 15.449 16.882 16.3481C16.0017 17.2486 15.1081 18.0618 14.3829 18.6544C14.0217 18.9497 13.692 19.1986 13.4203 19.3779C13.2855 19.4668 13.1516 19.5476 13.0267 19.609C12.9358 19.6537 12.7325 19.75 12.4999 19.75C12.2672 19.75 12.064 19.6537 11.973 19.609C11.8481 19.5476 11.7142 19.4668 11.5795 19.3779C11.3078 19.1986 10.9781 18.9497 10.6168 18.6544C9.89167 18.0618 8.99806 17.2486 8.11776 16.3481C7.23876 15.449 6.35838 14.4478 5.66885 13.4787C4.9985 12.5366 4.43523 11.5257 4.31744 10.6245ZM8.8198 5.75C7.0799 5.75 5.41795 7.47017 5.80479 10.4301C5.87176 10.9425 6.24238 11.6975 6.89103 12.6091C7.5205 13.4937 8.34422 14.434 9.19039 15.2996C10.0353 16.1639 10.8879 16.9388 11.566 17.493C11.9064 17.7712 12.1926 17.9854 12.4056 18.1259C12.4403 18.1488 12.4717 18.1689 12.4999 18.1862C12.528 18.1689 12.5594 18.1488 12.5942 18.1259C12.8071 17.9854 13.0933 17.7712 13.4337 17.493C14.1118 16.9388 14.9645 16.1639 15.8093 15.2996C16.6555 14.434 17.4792 13.4937 18.1087 12.6091C18.7573 11.6975 19.128 10.9425 19.1949 10.4301C19.5818 7.47011 17.9198 5.75 16.1799 5.75C14.9011 5.75 13.9146 6.29574 13.1263 7.49299L12.4999 8.44426L11.8735 7.49299C11.0851 6.29574 10.0987 5.75 8.8198 5.75ZM12.3314 18.2775C12.3315 18.2772 12.3361 18.2752 12.3447 18.2724C12.3355 18.2764 12.3312 18.2778 12.3314 18.2775ZM12.655 18.2723C12.6636 18.2752 12.6682 18.2772 12.6684 18.2775C12.6685 18.2778 12.6643 18.2764 12.655 18.2723Z" fill="#A8A8A8"/>
</svg>
