<svg id="Capa_1" enable-background="new 0 0 512 512" height="512" viewBox="0 0 512 512" width="512" xmlns="http://www.w3.org/2000/svg"><g><g><g><path d="m96.977 120.951h227.77v39.431h-227.77z" fill="#e2c4ff" transform="matrix(0 1 -1 0 351.529 -70.197)"/></g><g><path d="m268.977 263.844 59.752-220.741-38.354-9.151-59.753 220.74z" fill="#e2c4ff"/></g></g><g fill="#020288"><path d="m342.806 18.93-7.861-1.876c-5.307-1.273-10.642 1.949-12.004 7.228l-90.812 351.894c-7.397-3.866-15.804-6.053-24.713-6.053h-6.269v-360.123c0-5.523-4.478-10-10-10h-8.082c-32.971 0-59.795 26.824-59.795 59.795v333.243c0 45.891 36.926 83.318 82.626 84.132v24.83c0 5.522 4.477 10 10 10 5.522 0 10-4.478 10-10v-24.933c37.151-1.935 68.589-27.865 77.353-64.397l83.791-321.499c.018-.067.034-.135.05-.201 7.653-32.072-12.214-64.388-44.284-72.04zm-199.536 374.108v-333.243c0-21.3 16.821-38.745 37.877-39.749v360.076c0 5.522 4.478 10 10 10h16.269c18.489 0 33.531 15.042 33.531 33.53 0 18.489-15.042 33.531-33.531 33.531-35.371.001-64.146-28.775-64.146-64.145zm224.39-306.807-83.79 321.492c-.018.067-.034.135-.05.202-4.054 16.99-14.539 30.979-28.523 39.652 3.614-7.204 5.65-15.331 5.65-23.925 0-12.652-4.412-24.293-11.779-33.465l90.676-351.365c9.607 2.729 17.725 8.868 22.987 17.43 5.548 9.027 7.262 19.67 4.829 29.979z"/><path d="m219.257 423.936c0-5.522-4.478-10-10-10h-10.468c-5.522 0-10 4.478-10 10 0 5.523 4.478 10 10 10h10.468c5.523 0 10-4.477 10-10z"/></g></g></svg>