<svg id="Capa_1" enable-background="new 0 0 512 512" height="512" viewBox="0 0 512 512" width="512" xmlns="http://www.w3.org/2000/svg"><g><g><path d="m422.283 341.201c.001-.002.003-.004.004-.007-.001.002-.002.003-.003.005 6.189-10.516-2.694-40.648-2.694-40.648l-111.351 19.718c-34.64 5.619-69.959 5.619-104.598 0l-111.352-19.717s-8.83 30.465-2.452 41.054c.009.014.018.029.026.044.009.014.017.029.026.043h.001c5.557 9.181 14.335 16.467 25.346 20.005 47.759 15.343 96.623 71.121 116.044 117.248l13.915 33.054h21.488l13.916-33.053c19.42-46.127 68.285-101.906 116.044-117.248 11.01-3.537 19.789-10.824 25.346-20.005.008-.012.015-.025.022-.037.012-.02.025-.041.037-.061.08-.132.158-.263.235-.395z" fill="#a4fcc4"/></g><g><path d="m425.068 128.328-.285-1.04c-.01-.037-.021-.075-.03-.112l-23.135-83.441v-33.735c0-5.523-4.478-10-10-10s-10 4.477-10 10v32.187c-25.44 39.801-59.987 74.029-100.065 99.106-.003.002-.006.003-.009.005-8.224 5.147-16.797 9.981-25.544 14.404-8.747-4.423-17.32-9.257-25.544-14.404-.003-.002-.006-.004-.009-.006-40.076-25.076-74.624-59.303-100.065-99.105v-32.187c0-5.523-4.478-10-10-10s-10 4.477-10 10v33.734l-23.134 83.441c-.01.037-.021.075-.03.112l-.282 1.026c-6.756 25.366-3.228 51.843 9.936 74.552 13.164 22.711 34.388 38.936 59.761 45.687 8.403 2.238 16.94 3.345 25.429 3.345 16.591 0 32.993-4.23 47.824-12.515.055-.03.111-.06.165-.091 3.592-2.02 7.053-4.255 10.269-6.634 4.635-3.412 10.011-5.216 15.549-5.216h.266c5.538 0 10.914 1.804 15.531 5.203 3.233 2.392 6.694 4.627 10.286 6.647.053.03.107.059.161.088 14.832 8.286 31.235 12.517 47.828 12.517 8.487 0 17.025-1.108 25.427-3.344 25.375-6.752 46.599-22.977 59.763-45.688 13.16-22.707 16.689-49.183 9.937-74.536zm-263.292 100.898c-20.212-5.378-37.117-18.301-47.602-36.389-10.483-18.086-13.293-39.173-7.909-59.39l17.955-64.767c24.91 34.496 56.418 64.403 92.21 87.405l8.614 34.088-8.499 33.635c-17.014 8.401-36.3 10.337-54.769 5.418zm105.169-36.602 4.406 17.435c-4.869-1.727-9.994-2.616-15.219-2.616h-.266c-5.225 0-10.348.889-15.219 2.617l4.406-17.436c.406-1.608.406-3.292 0-4.9l-4.412-17.458c3.629 1.93 7.293 3.796 10.98 5.591 2.764 1.346 5.99 1.346 8.754 0 3.688-1.795 7.352-3.661 10.98-5.591l-4.412 17.458c-.404 1.608-.404 3.292.002 4.9zm130.88.213c-10.484 18.088-27.39 31.011-47.603 36.39-18.466 4.916-37.752 2.981-54.768-5.419l-8.499-33.634 8.614-34.088c35.793-23.003 67.301-52.908 92.211-87.405l17.699 63.839.259.941c5.38 20.203 2.57 41.29-7.913 59.376z" fill="#020288"/></g></g></svg>