<svg width="24" height="24" viewBox="0 0 24 24" fill="none" xmlns="http://www.w3.org/2000/svg">
<path fill-rule="evenodd" clip-rule="evenodd" d="M8.47571 3.69189C7.77521 4.62978 7.39286 5.92917 7.39286 7.26102C7.39286 10.5275 9.52131 12.0618 11.5 12.0618C13.4787 12.0618 15.6071 10.5275 15.6071 7.26102C15.6071 5.47795 15.2035 4.22021 14.5541 3.42657C13.9342 2.66884 12.9728 2.19048 11.5 2.19048C10.1392 2.19048 9.15328 2.78471 8.47571 3.69189ZM15.4941 12.7634C16.8676 11.5744 17.7976 9.70368 17.7976 7.26102C17.7976 5.19048 17.3342 3.36532 16.2495 2.03948C15.1353 0.677726 13.4955 0 11.5 0C9.39252 0 7.77728 0.966484 6.72071 2.3811C5.68709 3.76502 5.20238 5.54852 5.20238 7.26102C5.20238 9.73542 6.15676 11.623 7.55965 12.8094C6.109 13.3569 4.7664 14.1712 3.63531 15.1375C1.54556 16.9228 0 19.3875 0 21.9048C0 22.5096 0.490355 23 1.09524 23H21.9048C22.5096 23 23 22.5096 23 21.9048C23 19.1464 21.4742 16.674 19.3482 14.9286C18.2275 14.0085 16.9097 13.2632 15.4941 12.7634ZM11.5 14.2523C9.20743 14.2523 6.85036 15.2718 5.05814 16.8029C3.63709 18.017 2.68124 19.4531 2.33491 20.8095H20.6948C20.3739 19.2719 19.3955 17.8015 17.9583 16.6216C16.1875 15.1678 13.828 14.2523 11.5 14.2523Z" fill="#A8A8A8"/>
</svg>
