<svg id="Capa_1" enable-background="new 0 0 512 512" height="512" viewBox="0 0 512 512" width="512" xmlns="http://www.w3.org/2000/svg"><g><g><path d="m329.913 260.001h-100.776s-.006.001-.016.003v-101.068c-.147-1.313-1.282-2.318-2.635-2.284-55.87 1.406-100.73 47.137-100.731 103.346-.002 57.038 46.33 103.377 103.366 103.386v-.018c.012.012.019.018.019.018 56.209-.001 101.94-44.861 103.346-100.731.037-1.452-1.122-2.652-2.573-2.652z" fill="#e2c4ff"/></g><g fill="#020288"><path d="m462.492 97.868c.01-2.593-.995-5.098-2.799-6.96-.1-.103-.161-.166-.169-.173l-88.802-87.844c-2.637-2.529-7.076-2.891-7.076-2.891-.011 0-282.735 0-282.735 0-17.316 0-31.403 13.983-31.403 31.172v449.656c0 17.189 14.087 31.172 31.403 31.172h350.178c17.316 0 31.403-13.983 31.403-31.172v-382.956c0-.001 0-.002 0-.004zm-88.803-63.91 38.889 38.468 15.586 15.418h-54.474v-53.886zm57.4 458.042h-350.178c-6.288 0-11.403-5.012-11.403-11.172v-449.656c0-6.16 5.116-11.172 11.403-11.172h272.778v77.844c0 5.522 4.477 10 10 10h78.803v372.984c0 6.16-5.116 11.172-11.403 11.172z"/><path d="m275.802 102.888c-3.371-.062-6.699 1.22-9.116 3.576-2.409 2.35-3.791 5.628-3.791 8.993v100.776c0 5.523 4.477 10 10 10h100.777c3.366 0 6.645-1.383 8.995-3.793 2.356-2.416 3.659-5.739 3.574-9.116-1.524-60.402-50.033-108.912-110.439-110.436zm7.093 103.345v-82.854c43.651 4.629 78.226 39.203 82.856 82.854z"/><path d="m369.051 420.064h-226.102c-5.523 0-10 4.477-10 10 0 5.522 4.477 10 10 10h226.102c5.523 0 10-4.478 10-10 0-5.523-4.477-10-10-10z"/></g></g></svg>