<svg width="24" height="24" viewBox="0 0 24 24" fill="none" xmlns="http://www.w3.org/2000/svg">
<path d="M20.1632 19.4843L16.1172 15.2762C17.1575 14.0396 17.7275 12.4836 17.7275 10.8637C17.7275 7.07913 14.6484 4 10.8637 4C7.07913 4 4 7.07913 4 10.8637C4 14.6484 7.07913 17.7275 10.8637 17.7275C12.2845 17.7275 13.6385 17.299 14.7961 16.4854L18.8728 20.7255C19.0432 20.9024 19.2724 21 19.518 21C19.7505 21 19.971 20.9114 20.1384 20.7502C20.4942 20.4079 20.5055 19.8403 20.1632 19.4843ZM10.8637 5.79054C13.6612 5.79054 15.9369 8.06632 15.9369 10.8637C15.9369 13.6612 13.6612 15.9369 10.8637 15.9369C8.06632 15.9369 5.79054 13.6612 5.79054 10.8637C5.79054 8.06632 8.06632 5.79054 10.8637 5.79054Z" fill="black"/>
</svg>
