<svg width="24" height="24" viewBox="0 0 24 24" fill="none" xmlns="http://www.w3.org/2000/svg">
<path d="M20.7415 19.3951L16.5507 14.9395C17.6283 13.6301 18.2186 11.9826 18.2186 10.2675C18.2186 6.26026 15.0293 3 11.1093 3C7.1893 3 4 6.26026 4 10.2675C4 14.2747 7.1893 17.535 11.1093 17.535C12.581 17.535 13.9833 17.0812 15.1823 16.2199L19.405 20.7093C19.5815 20.8967 19.8189 21 20.0732 21C20.314 21 20.5425 20.9062 20.7159 20.7355C21.0843 20.3731 21.0961 19.7721 20.7415 19.3951ZM11.1093 4.89587C14.0068 4.89587 16.364 7.30552 16.364 10.2675C16.364 13.2295 14.0068 15.6391 11.1093 15.6391C8.21181 15.6391 5.85461 13.2295 5.85461 10.2675C5.85461 7.30552 8.21181 4.89587 11.1093 4.89587Z" fill="black"/>
</svg>
