<svg id="Capa_1" enable-background="new 0 0 512 512" height="512" viewBox="0 0 512 512" width="512" xmlns="http://www.w3.org/2000/svg"><g><g fill="#020288"><path d="m239.155 220.217h-138.484c-5.522 0-10 4.478-10 10v106.504c0 5.522 4.478 10 10 10h138.483c5.522 0 10-4.478 10-10v-106.504c.001-5.523-4.477-10-9.999-10zm-10 106.504h-118.484v-86.504h118.483v86.504z"/><path d="m228.93 492h-143.152c-21.123-49.255-35.129-130.102-35.129-204.186 0-71.929 13.355-128.906 37.623-186.25h163.282c24.267 57.343 37.622 114.32 37.622 186.25 0 38.506-3.783 78.838-10.383 115.612h20.251c6.453-37.071 10.132-77.274 10.132-115.612 0-53.74-7.619-103.286-23.293-151.469-16.134-49.601-39.538-94.174-60.305-131.233-1.768-3.157-5.105-5.112-8.723-5.112h-93.885c-3.618 0-6.955 1.955-8.724 5.111-20.766 37.061-44.17 81.634-60.304 131.234-15.674 48.184-23.293 97.73-23.293 151.469 0 79.707 15.903 167.476 39.574 218.401 1.64 3.528 5.178 5.785 9.068 5.785h141.167zm-71.494-472h24.953v12.477c0 6.88-5.597 12.476-12.477 12.476s-12.477-5.597-12.477-12.476v-12.477zm-28.594 0h8.594v12.477c0 17.907 14.569 32.477 32.477 32.477s32.477-14.569 32.477-32.477v-12.477h8.594c11.78 21.21 22.376 41.516 31.686 61.563h-145.514c9.31-20.046 19.907-40.353 31.686-61.563z"/></g><g><path d="m460.043 450.195c2.686-6.352 4.172-13.334 4.172-20.664 0-29.32-23.768-53.088-53.088-53.088-14.916 0-28.395 6.152-38.039 16.056-15.272-12.704-35.332-20.128-55.903-20.128-43.055 0-78.796 32.429-81.337 73.023-25.025 6.143-43.459 28.354-43.459 53.101 0 4.661.632 9.186 1.818 13.505h284.36c1.809-5.436 2.784-11.215 2.784-17.202 0-16.621-8.263-33.213-21.308-44.603z" fill="#b2f0fb"/></g></g></svg>