<svg width="24" height="24" viewBox="0 0 24 24" fill="none" xmlns="http://www.w3.org/2000/svg">
<path fill-rule="evenodd" clip-rule="evenodd" d="M9.9533 6.67684C9.36495 7.38166 9.04545 8.35566 9.04545 9.35185C9.04545 11.7996 10.8318 12.9579 12.5 12.9579C14.1682 12.9579 15.9545 11.7996 15.9545 9.35185C15.9545 8.02228 15.6182 7.07767 15.0702 6.47838C14.5454 5.90442 13.7333 5.54545 12.5 5.54545C11.355 5.54545 10.5236 5.99368 9.9533 6.67684ZM15.7254 13.4533C16.8886 12.5805 17.6818 11.1856 17.6818 9.35185C17.6818 7.81947 17.2984 6.47452 16.4071 5.49974C15.4925 4.49962 14.1455 4 12.5 4C10.7662 4 9.43855 4.71086 8.56942 5.75203C7.71838 6.77154 7.31818 8.0871 7.31818 9.35185C7.31818 11.2087 8.1315 12.6156 9.31867 13.486C8.09196 13.8908 6.95588 14.5028 6.00152 15.2323C4.27271 16.5538 3 18.374 3 20.2273C3 20.654 3.38666 21 3.86364 21H21.1364C21.6133 21 22 20.654 22 20.2273C22 18.1942 20.7428 16.3686 18.9855 15.0777C18.0395 14.3828 16.9237 13.8228 15.7254 13.4533ZM12.5 14.5034C10.5843 14.5034 8.61768 15.2652 7.12348 16.4074C5.9199 17.3274 5.1125 18.4216 4.83448 19.4545H20.1877C19.9308 18.2838 19.1053 17.1653 17.8895 16.2722C16.4122 15.187 14.4437 14.5034 12.5 14.5034Z" fill="#A8A8A8"/>
</svg>
