<svg width="24" height="24" fill="none" xmlns="http://www.w3.org/2000/svg"><path fill-rule="evenodd" clip-rule="evenodd" d="M19.2 11.99a7.206 7.206 0 00-6.3-7.152v2.048a.9.9 0 11-1.8 0V4.485c0-.879.762-1.505 1.502-1.485.044.002.088.006.131.01l.044.004A9.007 9.007 0 0121 11.99c0 4.976-4.03 9.01-9 9.01s-9-4.034-9-9.01c0-2.42.96-4.692 2.636-6.37a.9.9 0 111.273 1.274A7.185 7.185 0 004.8 11.99c0 3.981 3.224 7.208 7.2 7.208s7.2-3.227 7.2-7.208zm-8.233 1.09a1.507 1.507 0 01-.215-.27h-.002L7.768 8a.18.18 0 01.248-.248l4.805 2.987-.002.002a1.503 1.503 0 01.27 2.339 1.499 1.499 0 01-2.121 0z" fill="#A8A8A8"/></svg>