<svg width="97" height="97" fill="none" xmlns="http://www.w3.org/2000/svg"><circle cx="48.5" cy="48.5" r="48.5" fill="#FF7931"/><path stroke="#fff" stroke-width="2" d="M23 43h52v28H23z"/><rect x="19" y="33" width="60" height="5" rx="2.5" stroke="#fff" stroke-width="2"/><path stroke="#fff" stroke-width="2" d="M34 24h30v4H34z"/><path d="M25 25.5a2.5 2.5 0 015 0V29h-5v-3.5zm43 .5a3 3 0 116 0v3h-6v-3z" fill="#fff"/><rect x="60.744" y="51.085" width="1.793" height="11.354" rx=".896" fill="#fff"/><rect x="55.963" y="57.658" width="1.793" height="11.354" rx=".896" transform="rotate(-90 55.963 57.658)" fill="#fff"/><rect x="31" y="58" width="2" height="11" rx="1" transform="rotate(-90 31 58)" fill="#fff"/></svg>