<svg width="97" height="97" fill="none" xmlns="http://www.w3.org/2000/svg"><circle cx="48.5" cy="48.5" r="48.5" fill="#FF7931"/><path d="M54.787 24v17.08c-.406 1.665-3.042 2.913-6.186 2.913-3.143 0-5.78-1.248-6.185-2.913V23.7c0-.104 0-.312.101-.416.507-1.25 3.042-2.186 6.186-2.186 3.143 0 5.797.9 5.932 2.186 0 0 .152.507.152.715z" stroke="#fff" stroke-width="2" stroke-miterlimit="10"/><path d="M48.5 21.1c-.71 0-1.217-.625-1.217-1.25v-2.6a1.25 1.25 0 011.217-1.249c.71 0 1.217.624 1.217 1.249v2.601c0 .729-.507 1.25-1.217 1.25z" fill="#fff"/><path d="M47.283 17.977s-.406 2.186-3.752 3.226H48.5l-1.217-3.226zm2.434 0s.405 2.186 3.752 3.226H48.5l1.217-3.226z" fill="#fff"/><path d="M51.846 43.681h-6.692v3.434h6.692v-3.434z" fill="#fff" fill-opacity=".7"/><path d="M48.5 49.3c4.816 0 8.72-.558 8.72-1.248s-3.904-1.249-8.72-1.249c-4.816 0-8.72.56-8.72 1.249 0 .69 3.904 1.249 8.72 1.249zm-8.72-1.768v6.036m17.44-5.516v5.932m5.78.832c0 1.145-6.49 3.018-14.5 3.018S34 56.065 34 54.816c0-.416 3.346-2.185 5.78-2.185 1.622.416 6.286.832 8.72.832 2.434 0 7.2-.416 8.72-.832 2.535.104 5.78 1.769 5.78 2.185z" stroke="#fff" stroke-width="2" stroke-miterlimit="10"/><path d="M57.22 57.106v9.262c0 .936-3.954 1.665-8.72 1.665s-8.72-.729-8.72-1.665v-9.262M42.213 67.2v9.366M54.787 67.2v9.366" stroke="#fff" stroke-width="2" stroke-miterlimit="10"/><path d="M50.123 80h-3.245c-.71 0-1.318-.624-1.318-1.353V68.032h5.78v10.615c.1.729-.508 1.353-1.218 1.353z" stroke="#fff" stroke-width="2" stroke-miterlimit="10"/></svg>