<svg width="97" height="97" fill="none" xmlns="http://www.w3.org/2000/svg"><circle cx="48.5" cy="48.5" r="48.5" fill="#FF7931"/><path stroke="#fff" stroke-width="2" d="M28 47h42v7H28zm13.344-5l3-10h9.875l2.5 10H41.344zm.036 17l2.945 9h9.35l2.946-9H41.379z"/><mask id="a" fill="#fff"><path d="M44.058 8h9.884v19.768h-9.884V8z"/></mask><path d="M44.058 8V6h-2v2h2zm9.884 0h2V6h-2v2zm0 19.768v2h2v-2h-2zm-9.884 0h-2v2h2v-2zm0-17.768h9.884V6h-9.884v4zm7.884-2v19.768h4V8h-4zm2 17.768h-9.884v4h9.884v-4zm-7.884 2V8h-4v19.768h4z" fill="#fff" mask="url(#a)"/><mask id="b" fill="#fff"><path d="M44.058 71.819h9.884v17.297h-9.884V71.82z"/></mask><path d="M44.058 71.819v-2h-2v2h2zm9.884 0h2v-2h-2v2zm0 17.297v2h2v-2h-2zm-9.884 0h-2v2h2v-2zm0-15.297h9.884v-4h-9.884v4zm7.884-2v17.297h4V71.82h-4zm2 15.297h-9.884v4h9.884v-4zm-7.884 2V71.82h-4v17.297h4z" fill="#fff" mask="url(#b)"/></svg>