<svg width="97" height="97" fill="none" xmlns="http://www.w3.org/2000/svg"><circle cx="48.5" cy="48.5" r="48.5" fill="#FF7931"/><path d="M49.5 81C66.897 81 81 66.897 81 49.5S66.897 18 49.5 18 18 32.103 18 49.5 32.103 81 49.5 81z" stroke="#fff" stroke-width="2" stroke-miterlimit="10"/><path d="M49.5 73.705c13.368 0 24.205-10.837 24.205-24.205 0-13.368-10.837-24.205-24.205-24.205-13.368 0-24.205 10.837-24.205 24.205 0 13.368 10.837 24.205 24.205 24.205z" stroke="#fff" stroke-width="2" stroke-miterlimit="10"/><path d="M49.5 59.337c5.433 0 9.837-4.404 9.837-9.837s-4.404-9.837-9.837-9.837-9.837 4.404-9.837 9.837 4.404 9.837 9.837 9.837z" stroke="#fff" stroke-width="2" stroke-miterlimit="10"/><path d="M49.5 54.805a5.416 5.416 0 100-10.831 5.416 5.416 0 000 10.831zM41.874 26.51c.22.995.442 2.1.442 3.095 0 6.963-5.637 12.6-12.6 12.6-1.105 0-2.1-.11-3.095-.442M57.126 26.51c-.22.995-.442 2.1-.442 3.095 0 6.963 5.637 12.6 12.6 12.6 1.105 0 2.1-.11 3.095-.442M41.874 72.49c.22-.995.442-2.1.442-3.095 0-6.963-5.637-12.6-12.6-12.6-1.105 0-2.1.11-3.095.442M57.126 72.49c-.22-.995-.442-2.1-.442-3.095 0-6.963 5.637-12.6 12.6-12.6 1.105 0 2.1.11 3.095.442" stroke="#fff" stroke-width="2" stroke-miterlimit="10"/></svg>