<svg width="97" height="97" viewBox="0 0 97 97" fill="none" xmlns="http://www.w3.org/2000/svg">
<circle cx="48.5" cy="48.5" r="48.5" fill="#FF7931"/>
<path d="M54.7866 23.9999V40.6634C54.7866 40.7675 54.7866 40.9756 54.7866 41.0797C54.381 42.7447 51.7447 43.9935 48.6013 43.9935C45.458 43.9935 42.8216 42.7447 42.416 41.0797C42.416 40.9756 42.416 40.8715 42.416 40.6634V23.7008C42.416 23.5967 42.416 23.3886 42.5174 23.2845C43.0244 22.0358 45.5594 21.0992 48.7027 21.0992C51.8461 21.0992 54.5 21.9999 54.635 23.2845C54.635 23.2845 54.7866 23.7918 54.7866 23.9999Z" stroke="white" stroke-width="2" stroke-miterlimit="10"/>
<path d="M48.5 21.0992C47.7902 21.0992 47.2832 20.4748 47.2832 19.8504V17.2488C47.2832 16.5203 47.8916 16 48.5 16C49.2098 16 49.7168 16.6244 49.7168 17.2488V19.8504C49.7168 20.5789 49.2098 21.0992 48.5 21.0992Z" fill="white"/>
<path d="M47.283 17.9772C47.283 17.9772 46.8774 20.1626 43.5312 21.2032H48.4998L47.283 17.9772Z" fill="white"/>
<path d="M49.7168 17.9772C49.7168 17.9772 50.1224 20.1626 53.4685 21.2032H48.5L49.7168 17.9772Z" fill="white"/>
<path d="M51.8461 43.6813H45.1538V47.1154H51.8461V43.6813Z" fill="white" fill-opacity="0.7"/>
<path d="M48.5001 49.3008C53.3161 49.3008 57.2203 48.7417 57.2203 48.052C57.2203 47.3623 53.3161 46.8032 48.5001 46.8032C43.684 46.8032 39.7798 47.3623 39.7798 48.052C39.7798 48.7417 43.684 49.3008 48.5001 49.3008Z" stroke="white" stroke-width="2" stroke-miterlimit="10"/>
<path d="M39.7798 47.5318V53.5675" stroke="white" stroke-width="2" stroke-miterlimit="10"/>
<path d="M57.2202 48.0521V53.9838" stroke="white" stroke-width="2" stroke-miterlimit="10"/>
<path d="M63 54.8162C63 55.9609 56.5105 57.8341 48.5 57.8341C40.4895 57.8341 34 56.065 34 54.8162C34 54.4 37.3462 52.6309 39.7797 52.6309C41.4021 53.0471 46.0664 53.4634 48.5 53.4634C50.9336 53.4634 55.6993 53.0471 57.2203 52.6309C59.7552 52.7349 63 54.4 63 54.8162Z" stroke="white" stroke-width="2" stroke-miterlimit="10"/>
<path d="M57.2203 57.1057V66.3675C57.2203 67.3041 53.2658 68.0325 48.5001 68.0325C43.7343 68.0325 39.7798 67.3041 39.7798 66.3675V57.1057" stroke="white" stroke-width="2" stroke-miterlimit="10"/>
<path d="M42.2134 67.2V76.5658" stroke="white" stroke-width="2" stroke-miterlimit="10"/>
<path d="M54.7866 67.2V76.5658" stroke="white" stroke-width="2" stroke-miterlimit="10"/>
<path d="M50.1225 80H46.8778C46.168 80 45.5596 79.3756 45.5596 78.6472V68.0325H51.3393V78.6472C51.4407 79.3756 50.8323 80 50.1225 80Z" stroke="white" stroke-width="2" stroke-miterlimit="10"/>
</svg>
