<svg width="24" height="24" viewBox="0 0 24 24" fill="none" xmlns="http://www.w3.org/2000/svg">
<path d="M5.37833 11.2513C5.43825 11.2416 5.49888 11.2371 5.55955 11.2379H15.8902L15.6649 11.1331C15.4447 11.0289 15.2444 10.8871 15.073 10.714L12.176 7.81707C11.7945 7.45285 11.7304 6.86694 12.0241 6.42883C12.3659 5.96197 13.0215 5.8606 13.4884 6.20245C13.5261 6.23009 13.562 6.26021 13.5957 6.29262L18.8343 11.5313C19.2437 11.9402 19.2441 12.6036 18.8351 13.013C18.8349 13.0133 18.8346 13.0135 18.8343 13.0138L13.5957 18.2525C13.1859 18.661 12.5226 18.6601 12.1139 18.2504C12.0818 18.2181 12.0518 18.1838 12.0241 18.1477C11.7304 17.7096 11.7945 17.1237 12.176 16.7594L15.0677 13.8572C15.2214 13.7033 15.3982 13.5743 15.5916 13.4748L15.9059 13.3334H5.61721C5.08199 13.3532 4.61241 12.9794 4.51186 12.4533C4.41923 11.8821 4.80715 11.344 5.37833 11.2513Z" fill="#FF7931"/>
</svg>
