<?xml version="1.0" encoding="utf-8"?><svg xmlns="http://www.w3.org/2000/svg" xmlns:xlink="http://www.w3.org/1999/xlink"><symbol viewBox="0 0 471.2 471.2" id="_download" xmlns="http://www.w3.org/2000/svg"><path d="M457.7 230.15c-7.5 0-13.5 6-13.5 13.5v122.8c0 33.4-27.2 60.5-60.5 60.5H87.5c-33.4 0-60.5-27.2-60.5-60.5v-124.8c0-7.5-6-13.5-13.5-13.5s-13.5 6-13.5 13.5v124.8c0 48.3 39.3 87.5 87.5 87.5h296.2c48.3 0 87.5-39.3 87.5-87.5v-122.8c0-7.4-6-13.5-13.5-13.5z"/><path d="M226.1 346.75c2.6 2.6 6.1 4 9.5 4s6.9-1.3 9.5-4l85.8-85.8c5.3-5.3 5.3-13.8 0-19.1-5.3-5.3-13.8-5.3-19.1 0l-62.7 62.8V30.75c0-7.5-6-13.5-13.5-13.5s-13.5 6-13.5 13.5v273.9l-62.8-62.8c-5.3-5.3-13.8-5.3-19.1 0-5.3 5.3-5.3 13.8 0 19.1l85.9 85.8z"/></symbol><symbol viewBox="0 0 478.2 478.2" id="_like" xmlns="http://www.w3.org/2000/svg"><path d="M457.575 325.1c9.8-12.5 14.5-25.9 13.9-39.7-.6-15.2-7.4-27.1-13-34.4 6.5-16.2 9-41.7-12.7-61.5-15.9-14.5-42.9-21-80.3-19.2-26.3 1.2-48.3 6.1-49.2 6.3h-.1c-5 .9-10.3 2-15.7 3.2-.4-6.4.7-22.3 12.5-58.1 14-42.6 13.2-75.2-2.6-97-16.6-22.9-43.1-24.7-50.9-24.7-7.5 0-14.4 3.1-19.3 8.8-11.1 12.9-9.8 36.7-8.4 47.7-13.2 35.4-50.2 122.2-81.5 146.3-.6.4-1.1.9-1.6 1.4-9.2 9.7-15.4 20.2-19.6 29.4-5.9-3.2-12.6-5-19.8-5h-61c-23 0-41.6 18.7-41.6 41.6v162.5c0 23 18.7 41.6 41.6 41.6h61c8.9 0 17.2-2.8 24-7.6l23.5 2.8c3.6.5 67.6 8.6 133.3 7.3 11.9.9 23.1 1.4 33.5 1.4 17.9 0 33.5-1.4 46.5-4.2 30.6-6.5 51.5-19.5 62.1-38.6 8.1-14.6 8.1-29.1 6.8-38.3 19.9-18 23.4-37.9 22.7-51.9-.4-8.1-2.2-15-4.1-20.1zm-409.3 122.2c-8.1 0-14.6-6.6-14.6-14.6V270.1c0-8.1 6.6-14.6 14.6-14.6h61c8.1 0 14.6 6.6 14.6 14.6v162.5c0 8.1-6.6 14.6-14.6 14.6h-61v.1zm383.7-133.9c-4.2 4.4-5 11.1-1.8 16.3 0 .1 4.1 7.1 4.6 16.7.7 13.1-5.6 24.7-18.8 34.6-4.7 3.6-6.6 9.8-4.6 15.4 0 .1 4.3 13.3-2.7 25.8-6.7 12-21.6 20.6-44.2 25.4-18.1 3.9-42.7 4.6-72.9 2.2h-1.4c-64.3 1.4-129.3-7-130-7.1h-.1l-10.1-1.2c.6-2.8.9-5.8.9-8.8V270.1c0-4.3-.7-8.5-1.9-12.4 1.8-6.7 6.8-21.6 18.6-34.3 44.9-35.6 88.8-155.7 90.7-160.9.8-2.1 1-4.4.6-6.7-1.7-11.2-1.1-24.9 1.3-29 5.3.1 19.6 1.6 28.2 13.5 10.2 14.1 9.8 39.3-1.2 72.7-16.8 50.9-18.2 77.7-4.9 89.5 6.6 5.9 15.4 6.2 21.8 3.9 6.1-1.4 11.9-2.6 17.4-3.5.4-.1.9-.2 1.3-.3 30.7-6.7 85.7-10.8 104.8 6.6 16.2 14.8 4.7 34.4 3.4 36.5-3.7 5.6-2.6 12.9 2.4 17.4.1.1 10.6 10 11.1 23.3.4 8.9-3.8 18-12.5 27z"/></symbol><symbol viewBox="0 0 487.222 487.222" id="_star" xmlns="http://www.w3.org/2000/svg"><path d="M486.554 186.811c-1.6-4.9-5.8-8.4-10.9-9.2l-152-21.6-68.4-137.5c-2.3-4.6-7-7.5-12.1-7.5s-9.8 2.9-12.1 7.6l-67.5 137.9-152 22.6c-5.1.8-9.3 4.3-10.9 9.2s-.2 10.3 3.5 13.8l110.3 106.9-25.5 151.4c-.9 5.1 1.2 10.2 5.4 13.2 2.3 1.7 5.1 2.6 7.9 2.6 2.2 0 4.3-.5 6.3-1.6l135.7-71.9 136.1 71.1c2 1 4.1 1.5 6.2 1.5 7.4 0 13.5-6.1 13.5-13.5 0-1.1-.1-2.1-.4-3.1l-26.3-150.5 109.6-107.5c3.9-3.6 5.2-9 3.6-13.9zm-137 107.1c-3.2 3.1-4.6 7.6-3.8 12l22.9 131.3-118.2-61.7c-3.9-2.1-8.6-2-12.6 0l-117.8 62.4 22.1-131.5c.7-4.4-.7-8.8-3.9-11.9l-95.6-92.8 131.9-19.6c4.4-.7 8.2-3.4 10.1-7.4l58.6-119.7 59.4 119.4c2 4 5.8 6.7 10.2 7.4l132 18.8-95.3 93.3z"/></symbol></svg>