<?xml version="1.0" encoding="utf-8"?><svg xmlns="http://www.w3.org/2000/svg" xmlns:xlink="http://www.w3.org/1999/xlink"><symbol viewBox="0 0 24 24" id="_arrowAddress" xmlns="http://www.w3.org/2000/svg"><path fill-rule="evenodd" clip-rule="evenodd" d="M19.527 2.801c.29.22.415.596.313.946l-5 17a.875.875 0 01-1.596.194l-3.31-5.673-6.13-1.415a.875.875 0 01-.272-1.592l15-9.5a.875.875 0 01.995.04zm-13.29 9.817l4.46 1.03a.875.875 0 01.559.411l2.477 4.247 3.772-12.823-11.267 7.135z"/></symbol><symbol viewBox="0 0 24 24" id="_arrowSlider" xmlns="http://www.w3.org/2000/svg"><path fill-rule="evenodd" clip-rule="evenodd" d="M18.654 11.912a.75.75 0 01.019 1.06L14.69 17.1a.75.75 0 11-1.08-1.042l2.726-2.824-11.323.2a.75.75 0 01-.026-1.5l11.322-.2-2.742-2.648a.75.75 0 011.042-1.08l4.045 3.906z"/></symbol><symbol viewBox="0 0 24 24" id="_bag" xmlns="http://www.w3.org/2000/svg"><path fill-rule="evenodd" clip-rule="evenodd" d="M9.01 7.627v-.003m.147-.872a3.934 3.934 0 00-.146.858v.016m.146-.874h5.686a3.42 3.42 0 00-.242-.612 2.451 2.451 0 00-.847-.955c-.384-.248-.938-.443-1.754-.443-.816 0-1.37.195-1.754.443a2.45 2.45 0 00-.847.955 3.41 3.41 0 00-.242.612zm7.512 0a5.313 5.313 0 00-.482-1.399A4.202 4.202 0 0014.73 3.73C14.024 3.274 13.123 3 12 3s-2.024.274-2.731.73a4.201 4.201 0 00-1.456 1.623 5.313 5.313 0 00-.482 1.399H4.89a.88.88 0 00-.889.87V20.13a.88.88 0 00.889.871h14.22a.88.88 0 00.889-.871V7.623a.88.88 0 00-.889-.871h-2.44zM5.778 8.494v10.764h12.444V8.494H5.778zm9.212-.867v-.001zm0-.001v-.002z"/></symbol><symbol viewBox="0 0 24 24" id="_favouriteItem" xmlns="http://www.w3.org/2000/svg"><path fill-rule="evenodd" clip-rule="evenodd" d="M4.317 10.624C3.853 7.07 5.894 4.25 8.82 4.25c1.488 0 2.715.555 3.68 1.609.965-1.054 2.192-1.609 3.68-1.609 2.926 0 4.967 2.819 4.502 6.374-.117.902-.68 1.913-1.351 2.855-.69.969-1.57 1.97-2.449 2.87-.88.9-1.774 1.713-2.5 2.305-.36.296-.69.545-.962.724-.134.089-.268.17-.393.231a1.216 1.216 0 01-.527.141c-.233 0-.436-.096-.527-.141a3.7 3.7 0 01-.394-.231c-.271-.18-.6-.428-.962-.724a31.71 31.71 0 01-2.5-2.306c-.878-.899-1.759-1.9-2.448-2.87-.67-.941-1.234-1.952-1.352-2.854zM8.82 5.75c-1.74 0-3.402 1.72-3.015 4.68.067.513.437 1.268 1.086 2.18.63.884 1.453 1.824 2.3 2.69a30.094 30.094 0 002.375 2.193c.34.278.627.492.84.633.034.023.066.043.094.06a2.26 2.26 0 00.094-.06c.213-.14.5-.355.84-.633.678-.554 1.53-1.33 2.375-2.193.847-.866 1.67-1.806 2.3-2.69.648-.912 1.019-1.667 1.086-2.18.387-2.96-1.275-4.68-3.015-4.68-1.279 0-2.265.546-3.054 1.743l-.626.951-.627-.951C11.085 6.296 10.1 5.75 8.82 5.75zm3.511 12.527l.014-.005a.074.074 0 01-.014.006zm.324-.005a.089.089 0 01.013.006.07.07 0 01-.013-.006z"/></symbol><symbol viewBox="0 0 24 24" id="_userLogin" xmlns="http://www.w3.org/2000/svg"><path fill-rule="evenodd" clip-rule="evenodd" d="M9.953 6.677c-.588.705-.908 1.679-.908 2.675 0 2.448 1.787 3.606 3.455 3.606 1.668 0 3.454-1.158 3.454-3.606 0-1.33-.336-2.274-.884-2.874-.525-.574-1.337-.933-2.57-.933-1.145 0-1.976.449-2.547 1.132zm5.772 6.776c1.164-.872 1.957-2.267 1.957-4.101 0-1.533-.384-2.877-1.275-3.852-.915-1-2.261-1.5-3.907-1.5-1.734 0-3.061.71-3.93 1.752-.852 1.02-1.252 2.335-1.252 3.6 0 1.857.814 3.264 2 4.134a11.384 11.384 0 00-3.316 1.746C4.272 16.554 3 18.374 3 20.227c0 .427.387.773.864.773h17.272c.477 0 .864-.346.864-.773 0-2.033-1.257-3.858-3.015-5.15a11.025 11.025 0 00-3.26-1.624zm-3.225 1.05c-1.916 0-3.882.762-5.377 1.904-1.203.92-2.01 2.015-2.289 3.047h15.354c-.257-1.17-1.083-2.289-2.298-3.182-1.478-1.085-3.446-1.769-5.39-1.769z"/></symbol></svg>