<?xml version="1.0" encoding="utf-8"?><svg viewBox="0 0 510 510" xmlns="http://www.w3.org/2000/svg" xmlns:xlink="http://www.w3.org/1999/xlink"><style>:root>svg{display:none}:root>svg:target{display:block}</style><svg viewBox="0 0 510 510" id="_google-glass-logo" xmlns="http://www.w3.org/2000/svg"><path d="M286.875 229.5v63.75h150.45c-15.3 89.25-86.7 153-175.95 153-104.55 0-191.25-86.7-191.25-191.25s86.7-191.25 191.25-191.25c53.55 0 99.45 22.95 132.6 58.65l45.9-45.9c-45.9-45.9-107.1-76.5-178.5-76.5-140.25 0-255 114.75-255 255s114.75 255 255 255 242.25-114.75 242.25-255v-25.5h-216.75z"/></svg><svg fill="none" viewBox="0 0 24 24" id="_login" xmlns="http://www.w3.org/2000/svg"><path fill-rule="evenodd" clip-rule="evenodd" d="M8.476 3.692c-.7.938-1.083 2.237-1.083 3.569 0 3.266 2.128 4.8 4.107 4.8s4.107-1.534 4.107-4.8c0-1.783-.403-3.04-1.053-3.834-.62-.758-1.581-1.237-3.054-1.237-1.36 0-2.347.595-3.024 1.502zm7.018 9.071c1.374-1.189 2.304-3.06 2.304-5.502 0-2.07-.464-3.896-1.548-5.222C15.135.678 13.495 0 11.5 0 9.393 0 7.777.966 6.72 2.381 5.688 3.765 5.203 5.55 5.203 7.261c0 2.474.955 4.362 2.358 5.548a13.36 13.36 0 00-3.925 2.329C1.545 16.922 0 19.387 0 21.904 0 22.51.49 23 1.095 23h20.81C22.51 23 23 22.51 23 21.905c0-2.759-1.526-5.231-3.652-6.976a12.846 12.846 0 00-3.854-2.166zm-3.994 1.49c-2.293 0-4.65 1.019-6.442 2.55-1.42 1.214-2.377 2.65-2.723 4.006h18.36c-.321-1.537-1.3-3.008-2.737-4.187-1.77-1.454-4.13-2.37-6.458-2.37z" fill="#A8A8A8"/></svg><svg fill="none" viewBox="0 0 28 28" id="_timer" xmlns="http://www.w3.org/2000/svg"><path fill-rule="evenodd" clip-rule="evenodd" d="M25.2 13.985A11.21 11.21 0 0015.4 2.86v3.185a1.4 1.4 0 11-2.8 0V2.31C12.6.943 13.785-.03 14.936 0c.069.003.137.009.205.015l.068.006C22.375.635 28 6.652 28 13.985 28 21.725 21.732 28 14 28S0 21.725 0 13.985c0-3.766 1.493-7.3 4.1-9.91a1.399 1.399 0 011.98 0 1.403 1.403 0 010 1.982 11.177 11.177 0 00-3.28 7.928c0 6.192 5.014 11.212 11.2 11.212 6.186 0 11.2-5.02 11.2-11.212zM12.393 15.68a2.344 2.344 0 01-.334-.421l-.003.002L7.415 7.78a.28.28 0 01.385-.386l7.475 4.646-.003.003a2.337 2.337 0 01.42 3.638 2.332 2.332 0 01-3.3 0z" fill="#C4C4C4"/></svg></svg>