<svg width="97" height="97" viewBox="0 0 97 97" fill="none" xmlns="http://www.w3.org/2000/svg">
<circle cx="48.5" cy="48.5" r="48.5" fill="#FF7931"/>
<rect x="28" y="47" width="42" height="7" stroke="white" stroke-width="2"/>
<path d="M41.344 42L44.344 32H54.2192L56.7192 42H41.344Z" stroke="white" stroke-width="2"/>
<path d="M41.3795 59L44.3249 68H53.6751L56.6205 59H41.3795Z" stroke="white" stroke-width="2"/>
<mask id="path-5-inside-1" fill="white">
<path d="M44.0576 8H53.9419V27.7685H44.0576V8Z"/>
</mask>
<path d="M44.0576 8V6H42.0576V8H44.0576ZM53.9419 8H55.9419V6H53.9419V8ZM53.9419 27.7685V29.7685H55.9419V27.7685H53.9419ZM44.0576 27.7685H42.0576V29.7685H44.0576V27.7685ZM44.0576 10H53.9419V6H44.0576V10ZM51.9419 8V27.7685H55.9419V8H51.9419ZM53.9419 25.7685H44.0576V29.7685H53.9419V25.7685ZM46.0576 27.7685V8H42.0576V27.7685H46.0576Z" fill="white" mask="url(#path-5-inside-1)"/>
<mask id="path-7-inside-2" fill="white">
<path d="M44.0576 71.8188H53.9419V89.1163H44.0576V71.8188Z"/>
</mask>
<path d="M44.0576 71.8188V69.8188H42.0576V71.8188H44.0576ZM53.9419 71.8188H55.9419V69.8188H53.9419V71.8188ZM53.9419 89.1163V91.1163H55.9419V89.1163H53.9419ZM44.0576 89.1163H42.0576V91.1163H44.0576V89.1163ZM44.0576 73.8188H53.9419V69.8188H44.0576V73.8188ZM51.9419 71.8188V89.1163H55.9419V71.8188H51.9419ZM53.9419 87.1163H44.0576V91.1163H53.9419V87.1163ZM46.0576 89.1163V71.8188H42.0576V89.1163H46.0576Z" fill="white" mask="url(#path-7-inside-2)"/>
</svg>
