<svg width="97" height="97" viewBox="0 0 97 97" fill="none" xmlns="http://www.w3.org/2000/svg">
<circle cx="48.5" cy="48.5" r="48.5" fill="#FF7931"/>
<path d="M49.5 81C66.897 81 81 66.897 81 49.5C81 32.103 66.897 18 49.5 18C32.103 18 18 32.103 18 49.5C18 66.897 32.103 81 49.5 81Z" stroke="white" stroke-width="2" stroke-miterlimit="10"/>
<path d="M49.5002 73.7053C62.8684 73.7053 73.7054 62.8682 73.7054 49.5C73.7054 36.1318 62.8684 25.2947 49.5002 25.2947C36.132 25.2947 25.2949 36.1318 25.2949 49.5C25.2949 62.8682 36.132 73.7053 49.5002 73.7053Z" stroke="white" stroke-width="2" stroke-miterlimit="10"/>
<path d="M49.4999 59.3368C54.9327 59.3368 59.3368 54.9327 59.3368 49.5C59.3368 44.0673 54.9327 39.6631 49.4999 39.6631C44.0672 39.6631 39.6631 44.0673 39.6631 49.5C39.6631 54.9327 44.0672 59.3368 49.4999 59.3368Z" stroke="white" stroke-width="2" stroke-miterlimit="10"/>
<path d="M49.4998 54.8053C52.4908 54.8053 54.9156 52.3805 54.9156 49.3895C54.9156 46.3984 52.4908 43.9737 49.4998 43.9737C46.5087 43.9737 44.084 46.3984 44.084 49.3895C44.084 52.3805 46.5087 54.8053 49.4998 54.8053Z" stroke="white" stroke-width="2" stroke-miterlimit="10"/>
<path d="M41.8737 26.5106C42.0948 27.5053 42.3158 28.6106 42.3158 29.6053C42.3158 36.5685 36.679 42.2053 29.7158 42.2053C28.6106 42.2053 27.6158 42.0948 26.6211 41.7632" stroke="white" stroke-width="2" stroke-miterlimit="10"/>
<path d="M57.1262 26.5106C56.9051 27.5053 56.6841 28.6106 56.6841 29.6053C56.6841 36.5685 62.3209 42.2053 69.2841 42.2053C70.3893 42.2053 71.3841 42.0948 72.3788 41.7632" stroke="white" stroke-width="2" stroke-miterlimit="10"/>
<path d="M41.8737 72.4894C42.0948 71.4947 42.3158 70.3894 42.3158 69.3947C42.3158 62.4315 36.679 56.7947 29.7158 56.7947C28.6106 56.7947 27.6158 56.9052 26.6211 57.2368" stroke="white" stroke-width="2" stroke-miterlimit="10"/>
<path d="M57.1262 72.4895C56.9051 71.4947 56.6841 70.3895 56.6841 69.3947C56.6841 62.4316 62.3209 56.7947 69.2841 56.7947C70.3893 56.7947 71.3841 56.9053 72.3788 57.2368" stroke="white" stroke-width="2" stroke-miterlimit="10"/>
</svg>
