<svg width="24" height="24" viewBox="0 0 24 24" fill="none" xmlns="http://www.w3.org/2000/svg">
<path fill-rule="evenodd" clip-rule="evenodd" d="M19.2 11.9903C19.2 8.31472 16.4517 5.28171 12.9 4.83835V6.88623C12.9 7.38382 12.4971 7.7872 12 7.7872C11.5029 7.7872 11.1 7.38382 11.1 6.88623V4.48491C11.1 3.60634 11.8616 2.98012 12.602 3.00048C12.646 3.00169 12.6897 3.00576 12.7334 3.00982C12.748 3.01117 12.7625 3.01252 12.777 3.01376C17.3838 3.40812 21 7.27646 21 11.9903C21 16.9662 16.9706 21 12 21C7.02944 21 3 16.9662 3 11.9903C3 9.56907 3.95969 7.29768 5.63604 5.61952C5.98751 5.26767 6.55736 5.26767 6.90883 5.61952C7.2603 5.97137 7.2603 6.54183 6.90883 6.89368C5.5667 8.23726 4.8 10.0519 4.8 11.9903C4.8 15.9711 8.02355 19.1981 12 19.1981C15.9765 19.1981 19.2 15.9711 19.2 11.9903ZM10.9669 13.0797C10.8835 12.9962 10.812 12.9053 10.7523 12.8091L10.7505 12.8109L7.76672 8.00059C7.71428 7.91604 7.74023 7.80495 7.82468 7.75245C7.88284 7.7163 7.95644 7.7163 8.01459 7.75245L12.8197 10.7394L12.8179 10.7412C12.914 10.8009 13.0048 10.8726 13.0882 10.9561C13.674 11.5425 13.674 12.4933 13.0882 13.0797C12.5024 13.6661 11.5527 13.6661 10.9669 13.0797Z" fill="#A8A8A8"/>
</svg>
